<?xml version="1.0" standalone="no"?>
<!DOCTYPE svg PUBLIC "-//W3C//DTD SVG 20010904//EN"
 "http://www.w3.org/TR/2001/REC-SVG-20010904/DTD/svg10.dtd">
<svg version="1.0" xmlns="http://www.w3.org/2000/svg"
 width="300.000000pt" height="287.000000pt" viewBox="0 0 300.000000 287.000000"
 preserveAspectRatio="xMidYMid meet">

<g transform="translate(0.000000,287.000000) scale(0.100000,-0.100000)"
fill="#000000" stroke="none">
<path d="M1039 2846 c-64 -22 -135 -87 -239 -215 -69 -84 -126 -123 -267 -180
-145 -59 -216 -107 -250 -166 -33 -57 -42 -97 -53 -232 -15 -182 -22 -207
-111 -355 -144 -239 -144 -287 0 -526 89 -148 96 -173 111 -355 11 -135 20
-175 53 -232 34 -59 105 -107 250 -166 149 -60 196 -94 289 -206 78 -93 142
-154 189 -180 52 -28 169 -23 304 12 149 39 223 38 395 -4 220 -54 279 -38
412 111 160 180 186 201 310 253 156 66 184 81 233 126 65 60 83 114 100 294
17 182 30 220 129 375 129 202 127 276 -14 495 -85 131 -98 170 -116 353 -17
180 -35 232 -99 291 -49 45 -77 60 -233 126 -124 52 -154 76 -310 252 -40 46
-94 95 -120 110 -65 39 -165 38 -317 -2 -148 -38 -223 -38 -391 3 -142 34
-198 38 -255 18z m261 -37 c165 -41 237 -41 400 0 241 60 292 43 460 -158 98
-118 149 -156 281 -210 262 -107 285 -138 309 -428 12 -149 26 -189 119 -336
136 -216 136 -268 0 -484 -94 -149 -107 -187 -119 -341 -23 -283 -48 -316
-309 -423 -132 -54 -183 -92 -281 -210 -168 -201 -218 -218 -460 -158 -165 41
-237 41 -400 0 -241 -60 -292 -43 -460 158 -98 117 -150 157 -275 207 -269
107 -302 152 -321 429 -8 132 -31 200 -105 320 -144 231 -144 289 0 520 74
120 97 188 105 320 19 277 52 321 321 429 125 50 177 90 275 207 168 200 219
218 460 158z"/>
<path d="M1523 1969 c-39 -11 -68 -50 -83 -110 -16 -63 -9 -883 7 -921 19 -43
70 -70 121 -65 24 3 52 13 62 22 18 16 20 17 20 2 0 -12 9 -17 32 -17 l31 0
-6 128 c-4 70 -7 198 -7 285 l0 157 -70 0 -70 0 0 -38 c0 -35 2 -37 33 -37
l32 0 2 -185 c3 -204 -3 -233 -48 -238 -52 -6 -56 8 -64 252 -9 297 2 652 22
672 19 18 48 18 67 -2 13 -12 16 -39 16 -130 l0 -114 40 0 40 0 0 121 c0 131
-12 175 -54 203 -31 20 -85 27 -123 15z"/>
<path d="M845 1958 c-2 -7 -13 -103 -24 -213 -61 -603 -72 -705 -87 -822 l-5
-43 39 0 c38 0 40 1 46 40 3 22 9 80 13 130 l6 90 58 0 59 0 0 -47 c0 -27 3
-85 7 -130 l6 -83 40 0 40 0 -7 88 c-9 117 -65 805 -74 912 l-7 85 -53 3 c-36
2 -54 -1 -57 -10z m80 -549 c8 -86 15 -164 15 -173 0 -13 -11 -16 -50 -16 -27
0 -50 3 -50 8 0 4 11 115 25 247 14 132 25 267 26 300 1 33 6 -1 10 -75 4 -74
15 -205 24 -291z"/>
<path d="M1087 1963 c-4 -3 -7 -249 -7 -545 l0 -538 40 0 40 0 2 343 3 342 28
-190 c36 -245 67 -444 73 -472 4 -20 11 -23 49 -23 l45 0 0 545 0 545 -35 0
-35 0 -1 -377 c0 -223 -4 -368 -9 -353 -5 14 -29 176 -55 360 -25 184 -48 343
-51 353 -4 12 -16 17 -43 17 -21 0 -41 -3 -44 -7z"/>
<path d="M1805 1948 c-42 -33 -55 -76 -55 -183 l0 -95 34 0 c42 0 46 9 46 114
0 86 8 106 45 106 40 0 45 -17 45 -167 0 -105 -4 -151 -14 -172 -15 -28 -53
-51 -86 -51 -16 0 -20 -7 -20 -39 0 -37 2 -39 43 -49 78 -20 82 -29 85 -231 3
-196 -3 -224 -51 -229 -50 -6 -57 10 -57 129 l0 109 -40 0 -40 0 0 -105 c0
-164 29 -210 130 -210 51 0 63 4 89 29 44 42 54 101 49 296 -4 190 -13 221
-77 248 l-38 16 31 16 c57 28 70 69 74 220 6 210 -20 270 -116 270 -35 0 -57
-6 -77 -22z"/>
<path d="M2067 1963 c-4 -3 -7 -249 -7 -545 l0 -538 125 0 125 0 0 40 0 40
-80 0 -80 0 0 505 0 505 -38 0 c-21 0 -42 -3 -45 -7z"/>
</g>
</svg>
